<?xml version="1.0" standalone="no"?>
<!DOCTYPE svg PUBLIC "-//W3C//DTD SVG 20010904//EN"
 "http://www.w3.org/TR/2001/REC-SVG-20010904/DTD/svg10.dtd">
<svg version="1.0" xmlns="http://www.w3.org/2000/svg"
 viewBox="0 0 512.000000 512.000000"
 preserveAspectRatio="xMidYMid meet">

<g transform="translate(0.000000,512.000000) scale(0.100000,-0.100000)"
fill="#000000" stroke="none">
<path d="M2044 4548 c-12 -5 -27 -21 -33 -34 -15 -33 -15 -355 0 -387 17 -38
50 -47 164 -47 l105 0 0 -134 0 -133 -62 -13 c-161 -33 -378 -126 -526 -225
-46 -30 -86 -55 -91 -55 -10 0 -91 96 -91 108 0 5 26 29 58 52 73 54 82 66 82
107 0 43 -30 73 -72 73 -26 0 -73 -29 -228 -143 -195 -142 -195 -142 -198
-183 -3 -35 1 -45 24 -63 39 -30 63 -26 134 23 l63 44 50 -60 c35 -42 48 -64
41 -73 -5 -7 -46 -55 -92 -106 -390 -442 -511 -1033 -322 -1575 180 -513 605
-901 1136 -1035 759 -191 1564 229 1859 970 222 559 109 1180 -297 1640 -46
51 -87 99 -92 106 -7 9 6 31 41 74 l51 60 43 -33 c84 -63 110 -69 153 -35 23
18 27 28 24 63 -3 41 -3 41 -198 183 -209 153 -237 166 -280 123 -20 -20 -26
-63 -14 -94 3 -9 35 -36 70 -61 35 -25 64 -51 64 -56 0 -13 -80 -109 -91 -109
-5 0 -45 25 -91 55 -142 95 -382 199 -505 220 l-43 7 0 139 0 139 85 0 c94 0
128 11 144 47 15 32 15 354 0 386 -6 14 -22 30 -36 36 -32 15 -999 14 -1029
-1z m916 -228 l0 -80 -400 0 -400 0 0 80 0 80 400 0 400 0 0 -80z m-240 -366
c0 -126 0 -126 -22 -120 -13 3 -76 6 -140 6 l-118 0 0 120 0 120 140 0 140 0
0 -126z m137 -303 c287 -63 523 -190 723 -391 202 -201 327 -433 392 -727 31
-142 31 -444 0 -586 -65 -294 -190 -526 -392 -727 -201 -202 -433 -327 -727
-392 -142 -31 -444 -31 -586 0 -294 65 -526 190 -727 392 -202 201 -327 433
-392 728 -32 140 -32 444 0 584 65 295 190 527 392 728 224 224 509 366 825
409 111 15 384 5 492 -18z"/>
<path d="M2505 3535 c-67 -66 10 -164 98 -124 25 11 47 47 47 75 0 9 -13 29
-29 45 -38 37 -82 39 -116 4z"/>
<path d="M1903 3381 c-57 -36 -53 -109 9 -138 55 -27 127 32 112 91 -13 55
-72 77 -121 47z"/>
<path d="M3125 3365 c-14 -13 -25 -36 -25 -50 0 -34 50 -85 84 -85 39 0 79 41
79 80 0 69 -89 105 -138 55z"/>
<path d="M1464 2940 c-55 -22 -70 -95 -29 -135 33 -33 70 -32 106 4 35 35 37
71 7 105 -27 29 -55 38 -84 26z"/>
<path d="M2823 2618 c-177 -177 -327 -334 -334 -350 -25 -61 38 -124 99 -99
16 7 173 157 350 334 301 302 322 325 322 358 0 46 -34 79 -80 79 -32 0 -60
-26 -357 -322z"/>
<path d="M3592 2924 c-54 -37 -44 -118 16 -143 62 -26 127 38 102 100 -23 55
-74 74 -118 43z"/>
<path d="M1284 2318 c-73 -35 -45 -158 36 -158 83 0 109 124 33 159 -29 13
-41 13 -69 -1z"/>
<path d="M3745 2295 c-52 -52 -13 -145 60 -145 29 0 75 55 75 90 0 41 -39 80
-80 80 -19 0 -40 -9 -55 -25z"/>
<path d="M1450 1697 c-14 -7 -31 -26 -39 -42 -12 -26 -12 -33 5 -64 24 -45 65
-61 102 -40 60 33 61 114 1 144 -34 18 -37 18 -69 2z"/>
<path d="M3579 1671 c-37 -37 -38 -79 -4 -111 76 -71 184 42 110 115 -33 33
-70 32 -106 -4z"/>
<path d="M1880 1225 c-71 -76 42 -184 115 -110 33 33 32 70 -4 106 -37 37 -79
38 -111 4z"/>
<path d="M3139 1235 c-38 -21 -55 -66 -37 -102 19 -40 61 -58 99 -43 59 25 76
80 37 124 -29 32 -66 40 -99 21z"/>
<path d="M2509 1067 c-20 -15 -39 -51 -39 -72 0 -29 55 -75 90 -75 41 0 80 39
80 80 0 61 -83 104 -131 67z"/>
</g>
</svg>
